<?xml version="1.0" encoding="UTF-8" standalone="no"?>
<!-- Created with Inkscape (http://www.inkscape.org/) -->

<svg
   width="13.325005mm"
   height="8.2253122mm"
   viewBox="0 0 13.325005 8.2253122"
   version="1.1"
   id="svg1161"
   inkscape:version="1.1 (c4e8f9ed74, 2021-05-24)"
   sodipodi:docname="logo_white.svg"
   xmlns:inkscape="http://www.inkscape.org/namespaces/inkscape"
   xmlns:sodipodi="http://sodipodi.sourceforge.net/DTD/sodipodi-0.dtd"
   xmlns="http://www.w3.org/2000/svg"
   xmlns:svg="http://www.w3.org/2000/svg">
  <sodipodi:namedview
     id="namedview1163"
     pagecolor="#505050"
     bordercolor="#eeeeee"
     borderopacity="1"
     inkscape:pageshadow="0"
     inkscape:pageopacity="0"
     inkscape:pagecheckerboard="0"
     inkscape:document-units="mm"
     showgrid="false"
     fit-margin-top="0"
     fit-margin-left="0"
     fit-margin-right="0"
     fit-margin-bottom="0"
     inkscape:zoom="6.4070146"
     inkscape:cx="43.93622"
     inkscape:cy="40.814641"
     inkscape:window-width="1680"
     inkscape:window-height="1022"
     inkscape:window-x="0"
     inkscape:window-y="28"
     inkscape:window-maximized="1"
     inkscape:current-layer="layer1" />
  <defs
     id="defs1158" />
  <g
     inkscape:label="Layer 1"
     inkscape:groupmode="layer"
     id="layer1"
     transform="translate(-159.8425,-92.684901)">
    <rect
       style="display:inline;fill:#11232c;fill-opacity:1;stroke:#050f0f;stroke-width:0.264583;stroke-linecap:round;stroke-linejoin:round;stroke-opacity:1"
       id="rect35351"
       width="13.060422"
       height="7.9607291"
       x="159.97479"
       y="92.817192"
       ry="1.8392863"
       rx="2.1276894" />
    <path
       d="m 161.15017,99.269781 h 0.53225 l 0.38828,-0.458083 c 0.0742,-0.09162 0.1876,-0.235585 0.27049,-0.344653 h 0.0262 c 0.0524,0.109068 0.12216,0.253037 0.17451,0.357741 l 0.23122,0.444995 h 0.48862 l -0.58023,-1.073223 0.95543,-1.068859 h -0.52789 l -0.3621,0.431906 c -0.0698,0.08289 -0.19196,0.270487 -0.2574,0.362104 h -0.0174 c -0.0393,-0.100342 -0.10907,-0.261762 -0.15706,-0.362104 l -0.21377,-0.431906 h -0.47553 l 0.52352,1.029595 z"
       style="font-style:italic;font-weight:600;font-size:23.5556px;font-family:'Source Code Pro';-inkscape-font-specification:'Source Code Pro, Semi-Bold Italic';display:inline;fill:#feffff;fill-opacity:0.7;stroke-width:0.185208"
       id="path35196" />
    <path
       d="m 166.11707,97.205864 h 0.47117 l 0.34901,-1.771253 h 0.82455 l 0.0742,-0.370829 h -0.82455 l 0.0305,-0.152694 c 0.0698,-0.335928 0.26176,-0.462446 0.52788,-0.462446 0.17451,0 0.29667,0.04799 0.42318,0.139606 l 0.21378,-0.296663 c -0.14397,-0.11343 -0.36211,-0.218135 -0.65441,-0.218135 -0.51916,0 -0.85945,0.261762 -0.97288,0.828912 l -0.0305,0.16142 -0.60205,0.02181 -0.0698,0.349015 h 0.59769 z"
       style="font-style:italic;font-weight:600;font-size:23.5556px;font-family:'Source Code Pro';-inkscape-font-specification:'Source Code Pro, Semi-Bold Italic';display:inline;fill:#ffffff;fill-opacity:0.7;stroke-width:0.185208"
       id="path35199" />
    <path
       d="m 169.83892,99.269781 h 0.53225 l 0.38827,-0.458083 c 0.0742,-0.09162 0.1876,-0.235585 0.27049,-0.344653 h 0.0262 c 0.0524,0.109068 0.12215,0.253037 0.1745,0.357741 l 0.23123,0.444995 h 0.48862 l -0.58024,-1.073223 0.95543,-1.068859 h -0.52789 l -0.3621,0.431906 c -0.0698,0.08289 -0.19196,0.270487 -0.2574,0.362104 h -0.0175 c -0.0393,-0.100342 -0.10907,-0.261762 -0.15706,-0.362104 l -0.21377,-0.431906 h -0.47553 l 0.52352,1.029595 z"
       style="font-style:italic;font-weight:600;font-size:23.5556px;font-family:'Source Code Pro';-inkscape-font-specification:'Source Code Pro, Semi-Bold Italic';display:inline;fill:#ffffff;fill-opacity:0.7;stroke-width:0.185208"
       id="path35202" />
    <line
       x1="164.27539"
       y1="98.164444"
       x2="169.46123"
       y2="98.164444"
       style="display:inline;fill:#feffff;fill-opacity:0.7;stroke:#c8c8c8;stroke-width:0.370417;stroke-opacity:1"
       stroke="#000000"
       stroke-linecap="round"
       id="line117" />
    <line
       x1="164.23836"
       y1="97.423607"
       x2="164.23836"
       y2="98.905281"
       style="display:inline;fill:#ffffff;fill-opacity:0.7;stroke:#c8c8c8;stroke-width:0.333764;stroke-opacity:1"
       stroke="#000000"
       stroke-linecap="round"
       id="line119" />
    <line
       x1="168.90561"
       y1="97.423607"
       x2="169.49828"
       y2="98.164444"
       style="display:inline;fill:#feffff;fill-opacity:0.7;stroke:#c8c8c8;stroke-width:0.370417;stroke-opacity:1"
       stroke="#000000"
       stroke-linecap="round"
       id="line121" />
    <line
       x1="168.90561"
       y1="98.905281"
       x2="169.49828"
       y2="98.164444"
       style="display:inline;fill:#feffff;fill-opacity:0.7;stroke:#c8c8c8;stroke-width:0.370417;stroke-opacity:1"
       stroke="#000000"
       stroke-linecap="round"
       id="line123" />
  </g>
</svg>
